# xmcd CD database file
#
# Track frame offsets:
#	150
#	15825
#	30378
#	55557
#	73804
#	92429
#	111957
#	127490
#	146076
#	158924
#	172105
#	188325
#	201783
#	222461
#	229106
#	247335
#	263768
#
# Disc length: 3530 seconds
#
# Revision: 1
# Processed by: cddbd v1.4PL0 Copyright (c) Steve Scherf et al.
# Submitted via: CDex 1.51
#
DISCID=f30dc811
DTITLE=Richard Köchli - Envole toi
DYEAR=1900
DGENRE=Blues
TTITLE0=Es Fäscht
TTITLE1=Windy and Warm
TTITLE2=Sprachlos?
TTITLE3=Local Hero
TTITLE4=Envole-toi
TTITLE5=Oh Evelyna, don't you cry for me
TTITLE6=Schlangentanz
TTITLE7='s Grossmuetti zöglet
TTITLE8=Little Martha
TTITLE9=Vivaldi's Largo
TTITLE10=Sous la douche on est bien
TTITLE11=Seepromenade
TTITLE12=Amazing Grace
TTITLE13=Interlude
TTITLE14=Goodtime Shuffle
TTITLE15=Tu t'en vas?
TTITLE16=Schlussspeak
EXTD=
EXTT0=
EXTT1=
EXTT2=
EXTT3=
EXTT4=
EXTT5=
EXTT6=
EXTT7=
EXTT8=
EXTT9=
EXTT10=
EXTT11=
EXTT12=
EXTT13=
EXTT14=
EXTT15=
EXTT16=
PLAYORDER=
